<?xml version="1.0" encoding="UTF-8"?>
<svg version="1.1" xmlns="http://www.w3.org/2000/svg" width="568" height="550">
<path d="M0 0 C3.14586469 0.00314877 6.29077479 -0.02035666 9.43652344 -0.0456543 C27.46991969 -0.10208817 45.21181998 1.71341668 62.85839844 5.50317383 C64.32140381 5.81617432 64.32140381 5.81617432 65.81396484 6.13549805 C112.54922706 16.5433986 156.52336081 38.79779256 191.81542969 71.26879883 C193.87886118 73.1623857 195.98164425 74.99393546 198.10839844 76.81567383 C205.31751454 83.10911591 211.90085306 89.98843876 218.04589844 97.31567383 C218.48885254 97.83419922 218.93180664 98.35272461 219.38818359 98.88696289 C233.36896397 115.30097643 245.13657862 133.17839839 255.04589844 152.31567383 C255.47966797 153.13600098 255.9134375 153.95632812 256.36035156 154.80151367 C271.88514715 184.40473 281.06850622 217.19941077 285.04589844 250.31567383 C285.14161133 251.08145752 285.23732422 251.84724121 285.3359375 252.63623047 C288.05128325 277.62665718 287.35465494 304.58065707 283.04589844 329.31567383 C282.85785645 330.40847656 282.66981445 331.5012793 282.47607422 332.62719727 C277.84536765 358.51052609 269.79226517 383.76837532 258.04589844 407.31567383 C257.64371094 408.12568848 257.24152344 408.93570312 256.82714844 409.77026367 C251.51774887 420.36624898 245.75888034 430.54669764 239.04589844 440.31567383 C238.64371094 440.901875 238.24152344 441.48807617 237.82714844 442.09204102 C230.35560965 452.90826084 222.23174069 463.05769077 213.36621094 472.77270508 C211.74422192 474.5503395 210.13589388 476.34049204 208.53808594 478.13989258 C204.267274 482.9265977 199.99267821 487.46748367 195.07714844 491.59301758 C192.83287132 493.49633721 190.69888747 495.49730571 188.54589844 497.50317383 C166.46607285 517.35816202 140.04569996 532.28137648 113.04589844 544.31567383 C112.34722656 544.63616699 111.64855469 544.95666016 110.92871094 545.28686523 C103.25527279 548.76159501 96.33746245 550.83753774 87.85839844 550.94067383 C86.79758057 550.95723022 86.79758057 550.95723022 85.71533203 550.97412109 C80.92207858 550.83946616 78.36463866 549.74969022 75.04589844 546.31567383 C73.40974156 543.55029346 72.7953222 541.52380179 72.78761292 538.32229614 C72.77737091 537.14537956 72.77737091 537.14537956 72.766922 535.94468689 C72.76947495 535.09274246 72.77202789 534.24079803 72.7746582 533.36303711 C72.76681808 532.00600929 72.76681808 532.00600929 72.75881958 530.62156677 C72.74858078 528.65674702 72.74279939 526.69190015 72.74093819 524.7270546 C72.73726933 521.60590306 72.72052366 518.48506783 72.70018005 515.36398315 C72.64484926 506.48954187 72.61423725 497.61505234 72.58959961 488.74047852 C72.57361251 483.30870451 72.54326755 477.87715081 72.50483513 472.44549179 C72.4932714 470.38610064 72.48725554 468.32666986 72.48715401 466.26724625 C72.48579605 446.03559638 70.59098478 425.19089402 55.67089844 409.87817383 C54.86652344 409.10473633 54.86652344 409.10473633 54.04589844 408.31567383 C54.04589844 407.65567383 54.04589844 406.99567383 54.04589844 406.31567383 C54.71830566 406.22592285 55.39071289 406.13617188 56.08349609 406.04370117 C89.26242347 401.52109403 120.17730365 393.43131186 146.04589844 371.31567383 C146.73167969 370.73301758 147.41746094 370.15036133 148.12402344 369.55004883 C171.89584512 347.55555961 180.88647566 311.43566253 182.17016602 280.30175781 C182.96048083 249.08309927 177.34988672 221.46137575 157.01464844 196.95239258 C154.18176152 193.1583476 154.18176152 193.1583476 154.04589844 190.31567383 C154.58930848 187.69872549 155.20028528 185.19439045 155.92089844 182.62817383 C159.26327025 169.99355439 159.73245076 158.15256343 157.85839844 145.19067383 C157.73037842 144.2906665 157.6023584 143.39065918 157.47045898 142.46337891 C156.18592195 134.1098255 153.88825557 126.25854535 151.04589844 118.31567383 C126.10164567 116.58543664 97.48839344 129.61011608 78.49121094 145.23364258 C75.62348586 147.3046413 75.18206098 147.32479962 71.37402344 147.06958008 C70.00703793 146.6994888 68.64774819 146.30021549 67.29589844 145.87817383 C65.71767902 145.45719148 64.13672304 145.04638466 62.55371094 144.64379883 C61.68649414 144.42272461 60.81927734 144.20165039 59.92578125 143.97387695 C54.39437738 142.70966325 48.78347723 141.93905959 43.17089844 141.12817383 C42.05489258 140.96196533 40.93888672 140.79575684 39.7890625 140.62451172 C11.86335519 136.58698534 -16.19505078 137.52269048 -43.95410156 142.25317383 C-45.42387451 142.49825684 -45.42387451 142.49825684 -46.92333984 142.74829102 C-52.12481887 143.65977137 -56.74778212 144.96019891 -61.70410156 146.81567383 C-66.02116807 147.86394324 -68.37815223 147.3279718 -72.14941406 145.21411133 C-75.41191415 143.18072789 -78.55964364 140.99751497 -81.71582031 138.80395508 C-97.5194254 127.93615505 -118.83417158 118.0365635 -138.32910156 118.25317383 C-139.38871094 118.26219727 -140.44832031 118.2712207 -141.54003906 118.28051758 C-142.33667969 118.29211914 -143.13332031 118.3037207 -143.95410156 118.31567383 C-152.22491442 140.48014464 -155.46455732 164.43962589 -148.28979492 187.44580078 C-147.64550781 189.55786133 -147.64550781 189.55786133 -146.95410156 193.31567383 C-148.19238281 195.53833008 -148.19238281 195.53833008 -150.26660156 197.37817383 C-169.10352599 216.3126989 -175.18295565 244.17778047 -175.20410156 269.94067383 C-175.20477631 270.67699036 -175.20545105 271.41330688 -175.20614624 272.17193604 C-175.1883409 284.4283321 -174.50525437 296.29165507 -171.95410156 308.31567383 C-171.78249512 309.12633301 -171.61088867 309.93699219 -171.43408203 310.7722168 C-165.13836958 339.31390517 -150.47077325 365.89843791 -125.49707031 382.15551758 C-102.09048008 396.75098745 -76.00746853 402.74149108 -48.95410156 406.31567383 C-48.95410156 410.21254884 -50.23978863 411.22981966 -52.64160156 414.25317383 C-58.46126319 422.07784255 -61.55392002 429.74606573 -63.26660156 439.31567383 C-64.45746194 444.79886609 -64.45746194 444.79886609 -66.49316406 446.91723633 C-68.63362105 448.07114524 -70.59755569 448.70959733 -72.95410156 449.31567383 C-73.92605469 449.59540039 -74.89800781 449.87512695 -75.89941406 450.16333008 C-92.67497164 454.6830605 -110.73534035 455.41649451 -126.32910156 446.62817383 C-135.38824308 440.55322011 -142.05591035 433.42091936 -147.95410156 424.31567383 C-157.80601379 409.91017798 -168.91184891 397.74723953 -186.95410156 394.31567383 C-188.76475747 394.22392673 -190.57862967 394.18564478 -192.39160156 394.19067383 C-193.78185547 394.18680664 -193.78185547 394.18680664 -195.20019531 394.18286133 C-197.88276137 394.31223331 -200.33978875 394.71784549 -202.95410156 395.31567383 C-202.95410156 398.5059195 -202.55597281 400.62935636 -200.42285156 403.06176758 C-196.95045754 406.15522972 -193.29615216 408.7974731 -189.39160156 411.31567383 C-175.04950715 420.7054553 -167.37951865 436.33880969 -160.50488281 451.51489258 C-153.21392168 467.11555188 -141.69310289 476.05710624 -125.95410156 482.31567383 C-122.32147649 483.50806221 -118.69223431 484.5150568 -114.95410156 485.31567383 C-114.09816406 485.50129883 -113.24222656 485.68692383 -112.36035156 485.87817383 C-107.37049916 486.5190723 -102.41764574 486.50628064 -97.39160156 486.50317383 C-96.32055176 486.50381836 -95.24950195 486.50446289 -94.14599609 486.50512695 C-87.4451387 486.46040714 -81.1180059 486.0798226 -74.54003906 484.75317383 C-71.63989265 484.26251462 -68.89076072 484.28738329 -65.95410156 484.31567383 C-65.86114068 491.62654124 -65.79020532 498.93727978 -65.74685287 506.24862003 C-65.72603845 509.6441502 -65.69783568 513.03927398 -65.65234375 516.43457031 C-65.60029367 520.34410625 -65.58110538 524.25348156 -65.56347656 528.16333008 C-65.54283142 529.3740065 -65.52218628 530.58468292 -65.50091553 531.83204651 C-65.49913814 538.54249369 -65.79719605 542.92905621 -69.95410156 548.31567383 C-75.74406064 552.17564655 -83.28790177 551.4492753 -89.95410156 550.31567383 C-98.60750199 547.86144401 -106.8047174 544.07702848 -114.95410156 540.31567383 C-115.87223633 539.89398926 -116.79037109 539.47230469 -117.73632812 539.0378418 C-142.32801961 527.58148979 -164.82325811 512.47937225 -184.95410156 494.31567383 C-185.81890137 493.53546875 -185.81890137 493.53546875 -186.70117188 492.73950195 C-190.49080649 489.3050799 -194.23407081 485.82533043 -197.95410156 482.31567383 C-198.96923828 481.3643457 -198.96923828 481.3643457 -200.00488281 480.39379883 C-204.2376831 476.30695717 -207.90931964 471.82134875 -211.58691406 467.23364258 C-213.11114185 465.35476773 -214.66656605 463.50056615 -216.25878906 461.67895508 C-254.56766241 417.65515144 -278.89458478 354.8595856 -279.15722656 296.46411133 C-279.16292664 295.44757477 -279.16862671 294.43103821 -279.17449951 293.38369751 C-279.18389494 291.23733541 -279.19046161 289.09095924 -279.19433594 286.94458008 C-279.20393045 283.74768926 -279.23496049 280.5514738 -279.26660156 277.35473633 C-279.36465237 258.41110033 -277.63706319 239.68491805 -273.39160156 221.19067383 C-273.14112061 220.09070068 -272.89063965 218.99072754 -272.63256836 217.85742188 C-258.41726053 158.11283762 -224.56908646 101.44764312 -175.95410156 63.31567383 C-174.86195793 62.43409602 -173.7708556 61.55122702 -172.68066406 60.66723633 C-133.94881223 29.45051993 -87.12266269 9.52223454 -37.95410156 2.31567383 C-36.76526367 2.13689697 -35.57642578 1.95812012 -34.3515625 1.77392578 C-22.91191251 0.17497541 -11.53816202 -0.02403042 0 0 Z " fill="#FFFFFF" transform="translate(278.9541015625,-0.315673828125)"/>
<path d="M0 0 C1 1 1 1 1.0625 4.0625 C1.041875 5.031875 1.02125 6.00125 1 7 C-1.8221083 8.91903365 -3.12901932 8.99110212 -6.625 8.75 C-10 8 -10 8 -12 6 C-11.875 3.5 -11.875 3.5 -11 1 C-7.57726474 -1.8961606 -4.13781464 -0.85879172 0 0 Z " fill="#FFFFFF" transform="translate(188,457)"/>
<path d="M0 0 C2.35207771 2.19527253 2.93214659 3.43003133 3.3125 6.625 C3 9 3 9 1 11 C-2.02552967 10.80688109 -4.26011831 10.44392901 -6.875 8.875 C-8.611916 5.98014 -8.18630572 3.29140103 -8 0 C-5.03475663 -1.48262169 -3.14877613 -0.83538959 0 0 Z " fill="#FFFFFF" transform="translate(143,441)"/>
<path d="M0 0 C1.051875 -0.02126953 1.051875 -0.02126953 2.125 -0.04296875 C4 0.1875 4 0.1875 6 2.1875 C5.8125 4.6875 5.8125 4.6875 5 7.1875 C1.32653229 9.63647847 -0.66356399 9.50287716 -5 9.1875 C-5.66 8.5275 -6.32 7.8675 -7 7.1875 C-6.75 4.125 -6.75 4.125 -6 1.1875 C-3.77109005 0.07304502 -2.46944894 0.02269714 0 0 Z " fill="#FFFFFF" transform="translate(205,453.8125)"/>
<path d="M0 0 C7.14893617 -0.56737589 7.14893617 -0.56737589 11 2 C11.25 5.0625 11.25 5.0625 11 8 C9.12356239 9.87643761 6.50194299 9.17984987 4.0078125 9.23046875 C2 9 2 9 -1 7 C-1.8125 5.0625 -1.8125 5.0625 -2 3 C-1.34 2.01 -0.68 1.02 0 0 Z " fill="#FFFFFF" transform="translate(155,453)"/>
<path d="M0 0 C2.9375 0.25 2.9375 0.25 6 1 C8.29404844 4.44107266 8.26293056 5.96839809 8 10 C7 11 7 11 4.6875 11.375 C2 11 2 11 -0.375 8.8125 C-2 6 -2 6 -1.8125 3.25 C-1 1 -1 1 0 0 Z " fill="#FFFFFF" transform="translate(123,424)"/>
<path d="M0 0 C3.375 0.3125 3.375 0.3125 7 1 C9 4 9 4 8.625 6.6875 C8.41875 7.450625 8.2125 8.21375 8 9 C5.1875 9.3125 5.1875 9.3125 2 9 C0.0625 6.75 0.0625 6.75 -1 4 C-0.6875 1.6875 -0.6875 1.6875 0 0 Z " fill="#FFFFFF" transform="translate(111,410)"/>
<path d="M0 0 C2.84326464 -0.23053497 4.46145349 -0.35903101 6.875 1.25 C8 3 8 3 7.6875 5.1875 C7.3471875 6.0846875 7.3471875 6.0846875 7 7 C4.125 7.125 4.125 7.125 1 7 C0.34 6.34 -0.32 5.68 -1 5 C-0.625 2.375 -0.625 2.375 0 0 Z " fill="#FFFFFF" transform="translate(100,400)"/>
</svg>
